<svg width="20" height="20" viewBox="0 0 20 20" fill="none" xmlns="http://www.w3.org/2000/svg">
<path d="M5.03178 12.1376L3.6651 18.0556C3.62278 18.2348 3.63549 18.4226 3.70156 18.5945C3.76763 18.7664 3.88399 18.9143 4.03545 19.019C4.18691 19.1237 4.36643 19.1803 4.55056 19.1814C4.73468 19.1825 4.91486 19.1281 5.06755 19.0252L10.0619 15.6956L15.0562 19.0252C15.2125 19.1289 15.3967 19.1823 15.5842 19.1782C15.7717 19.1741 15.9535 19.1126 16.105 19.0022C16.2565 18.8917 16.3706 18.7374 16.4319 18.5602C16.4931 18.3829 16.4986 18.1912 16.4477 18.0107L14.7701 12.1404L18.9306 8.39625C19.0639 8.27626 19.159 8.11985 19.2043 7.94635C19.2497 7.77286 19.2431 7.58989 19.1855 7.42007C19.1279 7.25026 19.0219 7.10104 18.8804 6.99088C18.7389 6.88072 18.5682 6.81445 18.3895 6.80026L13.1603 6.38383L10.8975 1.37482C10.8253 1.21353 10.708 1.07657 10.5598 0.980462C10.4115 0.884359 10.2386 0.833221 10.0619 0.833221C9.8852 0.833221 9.71228 0.884359 9.56401 0.980462C9.41574 1.07657 9.29844 1.21353 9.22629 1.37482L6.96347 6.38383L1.73432 6.79934C1.55863 6.81326 1.39067 6.8775 1.25053 6.98438C1.11039 7.09125 1.00401 7.23624 0.94412 7.40199C0.884224 7.56774 0.87335 7.74724 0.912798 7.91901C0.952245 8.09078 1.04034 8.24755 1.16656 8.37056L5.03178 12.1376ZM7.64865 8.16969C7.81237 8.15679 7.96961 8.10009 8.10387 8.00552C8.23814 7.91095 8.3445 7.782 8.41179 7.63219L10.0619 3.98068L11.712 7.63219C11.7793 7.782 11.8856 7.91095 12.0199 8.00552C12.1542 8.10009 12.3114 8.15679 12.4751 8.16969L16.1184 8.45862L13.1181 11.159C12.8576 11.3938 12.754 11.7552 12.8494 12.0927L13.9987 16.1148L10.5719 13.8299C10.4215 13.729 10.2444 13.6751 10.0633 13.6751C9.88212 13.6751 9.70507 13.729 9.55466 13.8299L5.97378 16.2175L6.93688 12.0478C6.97219 11.8944 6.96745 11.7345 6.92311 11.5835C6.87878 11.4325 6.79634 11.2955 6.68372 11.1856L3.89716 8.46871L7.64865 8.16969Z" fill="#F3CD03"/>
</svg>
