<svg width="20" height="20" viewBox="0 0 20 20" fill="none" xmlns="http://www.w3.org/2000/svg">
<path d="M19.1308 7.4193C19.0732 7.24949 18.967 7.10028 18.8256 6.99009C18.6841 6.8799 18.5134 6.81356 18.3347 6.79925L13.1055 6.38374L10.8427 1.37473C10.7706 1.2134 10.6534 1.07637 10.5052 0.980186C10.357 0.884002 10.1841 0.832769 10.0074 0.832672C9.83069 0.832575 9.65774 0.883618 9.50941 0.97964C9.36109 1.07566 9.24372 1.21256 9.17148 1.37381L6.90867 6.38374L1.67951 6.79925C1.50382 6.81317 1.33586 6.87741 1.19572 6.98428C1.05559 7.09116 0.949205 7.23615 0.88931 7.4019C0.829415 7.56765 0.818541 7.74715 0.857988 7.91892C0.897436 8.09069 0.985535 8.24746 1.11175 8.37047L4.97605 12.1376L3.60937 18.0555C3.56788 18.2347 3.58118 18.4222 3.64755 18.5936C3.71392 18.7651 3.8303 18.9127 3.98159 19.0172C4.13288 19.1217 4.31208 19.1784 4.49596 19.1798C4.67983 19.1812 4.85988 19.1273 5.01274 19.0251L10.0071 15.6955L15.0014 19.0251C15.1577 19.1288 15.3419 19.1822 15.5294 19.1781C15.7169 19.174 15.8986 19.1125 16.0502 19.0021C16.2017 18.8916 16.3158 18.7373 16.3771 18.5601C16.4383 18.3828 16.4438 18.1911 16.3929 18.0106L14.7152 12.1403L18.8758 8.39616C19.1482 8.15034 19.2482 7.76693 19.1308 7.4193Z" fill="#F3CD03"/>
</svg>
