<svg width="17" height="16" viewBox="0 0 17 16" fill="none" xmlns="http://www.w3.org/2000/svg">
<path fill-rule="evenodd" clip-rule="evenodd" d="M12.4015 10.3188L16.7053 14.6226C16.8565 14.7739 16.9415 14.9792 16.9414 15.1932C16.9413 15.4072 16.8562 15.6124 16.7049 15.7637C16.5535 15.915 16.3482 15.9999 16.1342 15.9998C15.9202 15.9998 15.715 15.9147 15.5637 15.7633L11.2599 11.4595C9.97335 12.456 8.35548 12.9249 6.73543 12.7709C5.11539 12.6169 3.61486 11.8515 2.53911 10.6304C1.46336 9.40935 0.893196 7.82432 0.944603 6.19779C0.99601 4.57125 1.66513 3.02539 2.81584 1.87468C3.96655 0.723966 5.51241 0.0548478 7.13895 0.00344105C8.76549 -0.0479656 10.3505 0.522201 11.5716 1.59795C12.7927 2.6737 13.5581 4.17422 13.7121 5.79427C13.8661 7.41431 13.3972 9.03219 12.4007 10.3188H12.4015ZM7.3417 11.1995C8.61468 11.1995 9.83553 10.6938 10.7357 9.79369C11.6358 8.89356 12.1415 7.67272 12.1415 6.39974C12.1415 5.12676 11.6358 3.90592 10.7357 3.00579C9.83553 2.10565 8.61468 1.59996 7.3417 1.59996C6.06872 1.59996 4.84788 2.10565 3.94775 3.00579C3.04762 3.90592 2.54193 5.12676 2.54193 6.39974C2.54193 7.67272 3.04762 8.89356 3.94775 9.79369C4.84788 10.6938 6.06872 11.1995 7.3417 11.1995Z" fill="#737373"/>
</svg>